<mxfile host="Electron" agent="Mozilla/5.0 (X11; Linux x86_64) AppleWebKit/537.36 (KHTML, like Gecko) draw.io/24.7.17 Chrome/128.0.6613.36 Electron/32.0.1 Safari/537.36" version="24.7.17">
  <diagram name="Pagina-1" id="fHwsfFKdcrlcgSxYYhV7">
    <mxGraphModel dx="1114" dy="-331" grid="1" gridSize="10" guides="1" tooltips="1" connect="1" arrows="1" fold="1" page="1" pageScale="1" pageWidth="827" pageHeight="1169" math="0" shadow="0">
      <root>
        <mxCell id="0" />
        <mxCell id="1" parent="0" />
        <mxCell id="Ovshlq4HTxYvNxlz1h3q-2" value="&lt;span style=&quot;color: rgb(32, 33, 34); font-family: sans-serif; font-size: 16px; text-align: start; background-color: rgb(255, 255, 255);&quot;&gt;Op 1 oktober 2010 is de&amp;nbsp;&lt;/span&gt;&lt;a href=&quot;https://nl.wikipedia.org/wiki/Wet_algemene_bepalingen_omgevingsrecht&quot; title=&quot;Wet algemene bepalingen omgevingsrecht&quot; style=&quot;text-decoration-line: none; background: none rgb(255, 255, 255); border-radius: 0px; overflow-wrap: break-word; font-family: sans-serif; font-size: 16px; text-align: start;&quot;&gt;Wet algemene bepalingen omgevingsrecht&lt;/a&gt;&lt;span style=&quot;color: rgb(32, 33, 34); font-family: sans-serif; font-size: 16px; text-align: start; background-color: rgb(255, 255, 255);&quot;&gt;&amp;nbsp;(Wabo) juridische basis voor vergunningen geworden.&lt;br&gt;&lt;br&gt;2024 omgevingswet&lt;br&gt;&lt;/span&gt;&lt;i style=&quot;color: rgb(32, 33, 34); font-family: sans-serif; font-size: 16px; text-align: start; background-color: rgb(255, 255, 255);&quot;&gt;digitaal stelsel Omgevingswet&lt;/i&gt;&lt;span style=&quot;color: rgb(32, 33, 34); font-family: sans-serif; font-size: 16px; text-align: start; background-color: rgb(255, 255, 255);&quot;&gt;&amp;nbsp;(DSO),&lt;br&gt;&lt;/span&gt;&lt;ul style=&quot;margin: 0.3em 0px 0px 1.6em; margin-inline-start: 1.6em; padding: 0px; color: rgb(32, 33, 34); font-family: sans-serif; font-size: 16px; text-align: start; background-color: rgb(255, 255, 255);&quot;&gt;&lt;li style=&quot;margin-bottom: 0.1em;&quot;&gt;Belemmeringenwet Landsverdediging&lt;/li&gt;&lt;li style=&quot;margin-bottom: 0.1em;&quot;&gt;Belemmeringenwet Privaatrecht&lt;/li&gt;&lt;li style=&quot;margin-bottom: 0.1em;&quot;&gt;&lt;a href=&quot;https://nl.wikipedia.org/wiki/Crisis-_en_herstelwet&quot; title=&quot;Crisis- en herstelwet&quot; style=&quot;text-decoration-line: none; background: none; border-radius: 0px; overflow-wrap: break-word;&quot;&gt;Crisis- en herstelwet&lt;/a&gt;&amp;nbsp;(Chw, 2010)&lt;/li&gt;&lt;li style=&quot;margin-bottom: 0.1em;&quot;&gt;Interimwet Stad en Milieubenadering&lt;/li&gt;&lt;li style=&quot;margin-bottom: 0.1em;&quot;&gt;&lt;a href=&quot;https://nl.wikipedia.org/w/index.php?title=Ontgrondingenwet&amp;amp;action=edit&amp;amp;redlink=1&quot; class=&quot;new&quot; title=&quot;Ontgrondingenwet (de pagina bestaat niet)&quot; style=&quot;text-decoration-line: none; background: none; border-radius: 0px; overflow-wrap: break-word;&quot;&gt;Ontgrondingenwet&lt;/a&gt;&lt;/li&gt;&lt;li style=&quot;margin-bottom: 0.1em;&quot;&gt;Planwet verkeer en vervoer&lt;/li&gt;&lt;li style=&quot;margin-bottom: 0.1em;&quot;&gt;&lt;a href=&quot;https://nl.wikipedia.org/wiki/Spoedwet_wegverbreding&quot; title=&quot;Spoedwet wegverbreding&quot; style=&quot;text-decoration-line: none; background: none; border-radius: 0px; overflow-wrap: break-word;&quot;&gt;Spoedwet wegverbreding&lt;/a&gt;&amp;nbsp;(2003)&lt;/li&gt;&lt;li style=&quot;margin-bottom: 0.1em;&quot;&gt;&lt;a href=&quot;https://nl.wikipedia.org/wiki/Trac%C3%A9wet&quot; title=&quot;Tracéwet&quot; style=&quot;text-decoration-line: none; background: none; border-radius: 0px; overflow-wrap: break-word;&quot;&gt;Tracéwet&lt;/a&gt;&amp;nbsp;(1994)&lt;/li&gt;&lt;li style=&quot;margin-bottom: 0.1em;&quot;&gt;Wet agrarisch grondverkeer&lt;/li&gt;&lt;li style=&quot;margin-bottom: 0.1em;&quot;&gt;&lt;a href=&quot;https://nl.wikipedia.org/wiki/Wet_algemene_bepalingen_omgevingsrecht&quot; title=&quot;Wet algemene bepalingen omgevingsrecht&quot; style=&quot;text-decoration-line: none; background: none; border-radius: 0px; overflow-wrap: break-word;&quot;&gt;Wet algemene bepalingen omgevingsrecht&lt;/a&gt;&amp;nbsp;(Wabo, 2010)&lt;/li&gt;&lt;li style=&quot;margin-bottom: 0.1em;&quot;&gt;&lt;a href=&quot;https://nl.wikipedia.org/wiki/Wet_ammoniak_en_veehouderij&quot; title=&quot;&quot; style=&quot;background: none; border-radius: 0px; outline-color: var(--outline-color-progressive--focus,#36c); overflow-wrap: break-word;&quot;&gt;Wet ammoniak en veehouderij&lt;/a&gt;&amp;nbsp;(Wav, 2002)&lt;/li&gt;&lt;li style=&quot;margin-bottom: 0.1em;&quot;&gt;&lt;a href=&quot;https://nl.wikipedia.org/wiki/Wet_bodembescherming&quot; title=&quot;Wet bodembescherming&quot; style=&quot;text-decoration-line: none; background: none; border-radius: 0px; overflow-wrap: break-word;&quot;&gt;Wet bodembescherming&lt;/a&gt;&amp;nbsp;(Wbb, 1987)&lt;/li&gt;&lt;li style=&quot;margin-bottom: 0.1em;&quot;&gt;&lt;a href=&quot;https://nl.wikipedia.org/wiki/Wet_geluidhinder&quot; title=&quot;Wet geluidhinder&quot; style=&quot;text-decoration-line: none; background: none; border-radius: 0px; overflow-wrap: break-word;&quot;&gt;Wet geluidhinder&lt;/a&gt;&amp;nbsp;(Wgh, 1979)&lt;/li&gt;&lt;li style=&quot;margin-bottom: 0.1em;&quot;&gt;Wet geurhinder en veehouderij&lt;/li&gt;&lt;li style=&quot;margin-bottom: 0.1em;&quot;&gt;&lt;a href=&quot;https://nl.wikipedia.org/wiki/Wet_hygi%C3%ABne_en_veiligheid_badinrichtingen_en_zwemgelegenheden&quot; title=&quot;Wet hygiëne en veiligheid badinrichtingen en zwemgelegenheden&quot; style=&quot;text-decoration-line: none; background: none; border-radius: 0px; overflow-wrap: break-word;&quot;&gt;Wet hygiëne en veiligheid badinrichtingen en zwemgelegenheden&lt;/a&gt;&amp;nbsp;(Whvbz, 1984)&lt;/li&gt;&lt;li style=&quot;margin-bottom: 0.1em;&quot;&gt;&lt;a href=&quot;https://nl.wikipedia.org/wiki/Wet_inrichting_landelijk_gebied&quot; title=&quot;Wet inrichting landelijk gebied&quot; style=&quot;text-decoration-line: none; background: none; border-radius: 0px; overflow-wrap: break-word;&quot;&gt;Wet inrichting landelijk gebied&lt;/a&gt;&amp;nbsp;(WILG, 2007)&lt;/li&gt;&lt;li style=&quot;margin-bottom: 0.1em;&quot;&gt;&lt;a href=&quot;https://nl.wikipedia.org/w/index.php?title=Wet_inzake_de_luchtverontreiniging&amp;amp;action=edit&amp;amp;redlink=1&quot; class=&quot;new&quot; title=&quot;Wet inzake de luchtverontreiniging (de pagina bestaat niet)&quot; style=&quot;text-decoration-line: none; background: none; border-radius: 0px; overflow-wrap: break-word;&quot;&gt;Wet inzake de luchtverontreiniging&lt;/a&gt;&amp;nbsp;(Wlv, 1970)&lt;/li&gt;&lt;li style=&quot;margin-bottom: 0.1em;&quot;&gt;&lt;a href=&quot;https://nl.wikipedia.org/wiki/Wet_natuurbescherming&quot; title=&quot;Wet natuurbescherming&quot; style=&quot;text-decoration-line: none; background: none; border-radius: 0px; overflow-wrap: break-word;&quot;&gt;Wet natuurbescherming&lt;/a&gt;&amp;nbsp;(2017)&lt;/li&gt;&lt;li style=&quot;margin-bottom: 0.1em;&quot;&gt;&lt;a href=&quot;https://nl.wikipedia.org/wiki/Wet_ruimtelijke_ordening&quot; title=&quot;Wet ruimtelijke ordening&quot; style=&quot;text-decoration-line: none; background: none; border-radius: 0px; overflow-wrap: break-word;&quot;&gt;Wet ruimtelijke ordening&lt;/a&gt;&amp;nbsp;(Wro, 2008)&lt;/li&gt;&lt;li style=&quot;margin-bottom: 0.1em;&quot;&gt;&lt;a href=&quot;https://nl.wikipedia.org/wiki/Wet_voorkeursrecht_gemeenten&quot; title=&quot;Wet voorkeursrecht gemeenten&quot; style=&quot;text-decoration-line: none; background: none; border-radius: 0px; overflow-wrap: break-word;&quot;&gt;Wet voorkeursrecht gemeenten&lt;/a&gt;&amp;nbsp;(Wvg, 1981)&lt;/li&gt;&lt;/ul&gt;" style="rounded=0;whiteSpace=wrap;html=1;" vertex="1" parent="1">
          <mxGeometry y="1169" width="240" height="1040" as="geometry" />
        </mxCell>
      </root>
    </mxGraphModel>
  </diagram>
</mxfile>
